<svg width="52" height="52" viewBox="0 0 52 52" fill="none" xmlns="http://www.w3.org/2000/svg">
<g clipPath="url(#clip0_3403_43450)">
<path d="M27.0509 50.1241H25.1339C23.612 50.1241 22.4295 48.7984 22.6028 47.2863L23.2828 41.3555H28.9019L29.5819 47.2863C29.7553 48.7983 28.5729 50.1241 27.0509 50.1241Z" fill="url(#paint0_linear_3403_43450)"/>
<path d="M27.0509 50.1241H25.1339C23.612 50.1241 22.4295 48.7984 22.6028 47.2863L23.2828 41.3555H28.9019L29.5819 47.2863C29.7553 48.7983 28.5729 50.1241 27.0509 50.1241Z" fill="url(#paint1_linear_3403_43450)"/>
<path d="M28.9007 41.3555H26V50.1241H27.0496C28.5716 50.1241 29.7541 48.7984 29.5807 47.2863L28.9007 41.3555Z" fill="url(#paint2_linear_3403_43450)"/>
<path d="M51.9871 4.63505C51.9345 3.14563 50.7313 1.94242 49.2419 1.88981C41.161 1.60442 31.0037 6.101 26 12.2819C34.686 12.5336 41.3435 19.1924 41.5951 27.877C47.7752 22.8739 52.2725 12.7164 51.9871 4.63505Z" fill="url(#paint3_linear_3403_43450)"/>
<path d="M51.9871 4.63505C51.9345 3.14563 50.7313 1.94242 49.2419 1.88981C41.161 1.60442 31.0037 6.101 26 12.2819C34.686 12.5336 41.3435 19.1924 41.5951 27.877C47.7752 22.8739 52.2725 12.7164 51.9871 4.63505Z" fill="url(#paint4_linear_3403_43450)"/>
<path d="M41.5951 27.8776C47.7753 22.8746 52.2725 12.717 51.9872 4.63577C51.963 3.95113 51.6952 3.32734 51.2687 2.84766L37.0781 17.0383C39.7901 19.8099 41.471 23.5974 41.5951 27.8776Z" fill="url(#paint5_linear_3403_43450)"/>
<path d="M39.4609 3.48828C34.1438 5.29122 29.0895 8.46484 26 12.2811C34.686 12.5327 41.3435 19.1916 41.5951 27.8762C45.4111 24.7871 48.5848 19.7326 50.3879 14.4153L39.4609 3.48828Z" fill="url(#paint6_linear_3403_43450)"/>
<path d="M45.5613 6.26989C41.4318 6.34789 36.4742 8.63539 33.9727 11.7256C38.5289 11.8577 42.0209 15.3505 42.1529 19.9059C45.2427 17.4046 47.5306 12.4469 47.6086 8.31719C47.6301 7.17969 46.6988 6.24846 45.5613 6.26989Z" fill="url(#paint7_linear_3403_43450)"/>
<path d="M45.5613 6.26989C41.4318 6.34789 36.4742 8.63539 33.9727 11.7256C38.5289 11.8577 42.0209 15.3505 42.1529 19.9059C45.2427 17.4046 47.5306 12.4469 47.6086 8.31719C47.6301 7.17969 46.6988 6.24846 45.5613 6.26989Z" fill="url(#paint8_linear_3403_43450)"/>
<path d="M45.5613 6.26989C41.4318 6.34789 36.4742 8.63539 33.9727 11.7256C38.5289 11.8577 42.0209 15.3505 42.1529 19.9059C45.2427 17.4046 47.5306 12.4469 47.6086 8.31719C47.6301 7.17969 46.6988 6.24846 45.5613 6.26989Z" fill="url(#paint9_linear_3403_43450)"/>
<path d="M45.5613 6.26989C41.4318 6.34789 36.4742 8.63539 33.9727 11.7256C38.5289 11.8577 42.0209 15.3505 42.1529 19.9059C45.2427 17.4046 47.5306 12.4469 47.6086 8.31719C47.6301 7.17969 46.6988 6.24846 45.5613 6.26989Z" fill="url(#paint10_linear_3403_43450)"/>
<path d="M0.0128559 4.63505C0.0654652 3.14563 1.26868 1.94242 2.75809 1.88981C10.8389 1.60442 20.9963 6.101 26 12.2819C17.3139 12.5336 10.6565 19.1924 10.4048 27.877C4.22475 22.8739 -0.272535 12.7164 0.0128559 4.63505Z" fill="url(#paint11_linear_3403_43450)"/>
<path d="M11.6715 3.20703L1.33203 13.5465C3.07363 19.1778 6.38324 24.6197 10.4066 27.8768C10.6583 19.1922 17.3157 12.5334 26.0018 12.2816C22.7444 8.25784 17.3025 4.94852 11.6715 3.20703Z" fill="url(#paint12_linear_3403_43450)"/>
<path d="M15.0398 16.9178L0.846684 2.72461C0.35309 3.2182 0.0391605 3.89136 0.0128559 4.63602C-0.272535 12.7173 4.22475 22.8748 10.4049 27.8779C10.5307 23.5355 12.258 19.6996 15.0398 16.9178Z" fill="url(#paint13_linear_3403_43450)"/>
<path d="M6.44219 6.2699C5.30469 6.24837 4.37346 7.17969 4.39489 8.31719C4.47289 12.4469 6.76079 17.4045 9.85063 19.9059C9.98266 15.3505 13.4747 11.8577 18.0309 11.7256C15.5293 8.63549 10.5717 6.3479 6.44219 6.2699Z" fill="url(#paint14_linear_3403_43450)"/>
<path d="M6.44219 6.2699C5.30469 6.24837 4.37346 7.17969 4.39489 8.31719C4.47289 12.4469 6.76079 17.4045 9.85063 19.9059C9.98266 15.3505 13.4747 11.8577 18.0309 11.7256C15.5293 8.63549 10.5717 6.3479 6.44219 6.2699Z" fill="url(#paint15_linear_3403_43450)"/>
<path d="M6.44219 6.2699C5.30469 6.24837 4.37346 7.17969 4.39489 8.31719C4.47289 12.4469 6.76079 17.4045 9.85063 19.9059C9.98266 15.3505 13.4747 11.8577 18.0309 11.7256C15.5293 8.63549 10.5717 6.3479 6.44219 6.2699Z" fill="url(#paint16_linear_3403_43450)"/>
<path d="M46.4373 37.32C45.9803 41.4465 42.4795 44.8031 38.0655 44.8031H13.9343C9.52039 44.8031 6.01953 41.4465 5.5625 37.32L13.0253 29.6866C20.1428 22.4066 31.857 22.4066 38.9745 29.6866L46.4373 37.32Z" fill="url(#paint17_linear_3403_43450)"/>
<path d="M5.5625 37.32C6.01953 41.4465 9.52039 44.8032 13.9343 44.8032H38.0655C42.4795 44.8032 45.9803 41.4465 46.4373 37.32L44.0164 34.8438H7.98345L5.5625 37.32Z" fill="url(#paint18_linear_3403_43450)"/>
<path d="M38.0656 44.8031C42.4795 44.8031 45.9804 41.4465 46.4374 37.32L38.9746 29.6866C35.4159 26.0466 30.7079 24.2266 26 24.2266V44.8031H38.0656Z" fill="url(#paint19_linear_3403_43450)"/>
<path d="M38.0645 44.8018C42.4784 44.8018 45.9792 41.4452 46.4363 37.3187L41.9372 32.7168H33.4129L31.7422 34.3875V44.8018H38.0645Z" fill="url(#paint20_linear_3403_43450)"/>
<path d="M43.798 21.8857C42.3245 14.3909 35.7538 8.98633 28.1156 8.98633H23.8854C16.2472 8.98633 9.67653 14.391 8.20306 21.8857L5.67222 34.7579C5.50099 35.629 5.47062 36.4898 5.56274 37.3196C5.98697 37.3454 6.41424 37.3601 6.84497 37.3601C14.449 37.3601 21.0999 33.2802 24.7285 27.1901C25.3027 26.2264 26.6982 26.2264 27.2724 27.1901C30.9011 33.2802 37.552 37.3601 45.156 37.3601C45.5867 37.3601 46.014 37.3455 46.4382 37.3196C46.5302 36.4898 46.4999 35.629 46.3287 34.7579L43.798 21.8857Z" fill="url(#paint21_linear_3403_43450)"/>
<path d="M36.4962 39.2557L36.1718 38.1427C35.0194 34.188 31.3946 31.4688 27.2754 31.4688H24.7221C20.6029 31.4688 16.9782 34.188 15.8258 38.1427L15.5015 39.2557C14.5254 42.6055 17.0871 45.8575 20.8762 46.4892C21.388 46.5745 21.9131 46.4508 22.3402 46.1561C24.5426 44.6364 27.4551 44.6364 29.6575 46.1561C30.0846 46.4508 30.6096 46.5745 31.1215 46.4892C34.9106 45.8575 37.4723 42.6055 36.4962 39.2557Z" fill="url(#paint22_linear_3403_43450)"/>
<path d="M36.173 38.1427C35.0206 34.188 31.3958 31.4688 27.2766 31.4688H26V45.0164C27.2787 45.0164 28.5574 45.3963 29.6586 46.1561C30.0858 46.4508 30.6107 46.5745 31.1226 46.4892C34.9117 45.8575 37.4734 42.6055 36.4973 39.2557L36.173 38.1427Z" fill="url(#paint23_linear_3403_43450)"/>
<path d="M43.7975 21.8857C42.324 14.391 35.7534 8.98633 28.1151 8.98633H26V26.4673C26.4925 26.4673 26.9849 26.7082 27.272 27.1901C30.9006 33.2802 37.5515 37.3601 45.1555 37.3601C45.5862 37.3601 46.0135 37.3454 46.4377 37.3197C46.5297 36.4899 46.4995 35.6291 46.3282 34.758L43.7975 21.8857Z" fill="url(#paint24_linear_3403_43450)"/>
<path d="M16.8521 33.2605C15.361 33.2605 14.1523 32.0518 14.1523 30.5608V29.1763C14.1523 27.6853 15.361 26.4766 16.8521 26.4766C18.3431 26.4766 19.5518 27.6853 19.5518 29.1763V30.5608C19.5518 32.0518 18.3431 33.2605 16.8521 33.2605Z" fill="url(#paint25_linear_3403_43450)"/>
<path d="M35.149 33.2605C33.6579 33.2605 32.4492 32.0518 32.4492 30.5608V29.1763C32.4492 27.6853 33.6579 26.4766 35.149 26.4766C36.64 26.4766 37.8487 27.6853 37.8487 29.1763V30.5608C37.8487 32.0518 36.64 33.2605 35.149 33.2605Z" fill="url(#paint26_linear_3403_43450)"/>
<path d="M15.8258 38.1421L15.5015 39.2551C14.5254 42.6047 17.0871 45.8569 20.8762 46.4886C21.388 46.5739 21.9131 46.4502 22.3402 46.1555C24.5426 44.6358 27.4551 44.6358 29.6575 46.1555C30.0846 46.4502 30.6096 46.5739 31.1215 46.4886C34.9106 45.8569 37.4723 42.6048 36.4962 39.2551L36.1719 38.1421C36.132 38.0052 36.0885 37.8702 36.0428 37.7363H15.9549C15.9091 37.8701 15.8656 38.0052 15.8258 38.1421Z" fill="url(#paint27_linear_3403_43450)"/>
<path d="M36.2195 42.8566L28.9137 35.5508L23.1484 38.7593L30.9007 46.5116C30.9741 46.5079 31.0477 46.501 31.1209 46.4889C33.486 46.0946 35.3727 44.6792 36.2195 42.8566Z" fill="url(#paint28_linear_3403_43450)"/>
<path d="M27.8223 39.414L28.3499 39.1277C29.0788 38.7322 29.5327 37.9694 29.5327 37.1402V37.1049C29.5327 35.8561 28.5203 34.8438 27.2715 34.8438H24.726C23.4772 34.8438 22.4648 35.8561 22.4648 37.1049V37.1402C22.4648 37.9694 22.9188 38.7322 23.6476 39.1277L24.1753 39.414C25.3126 40.0311 26.6849 40.0311 27.8223 39.414Z" fill="url(#paint29_linear_3403_43450)"/>
</g>
<defs>
<linearGradient id="paint0_linear_3403_43450" x1="26.1094" y1="45.4328" x2="27.4349" y2="47.6759" gradientUnits="userSpaceOnUse">
<stop stop-color="#FDB4BA"/>
<stop offset="1" stop-color="#FD8087"/>
</linearGradient>
<linearGradient id="paint1_linear_3403_43450" x1="25.4916" y1="47.699" x2="26.1713" y2="45.5238" gradientUnits="userSpaceOnUse">
<stop stop-color="#FD4755" stop-opacity="0"/>
<stop offset="0.2593" stop-color="#F74452" stop-opacity="0.259"/>
<stop offset="0.6276" stop-color="#E43B4C" stop-opacity="0.628"/>
<stop offset="1" stop-color="#CA2E43"/>
</linearGradient>
<linearGradient id="paint2_linear_3403_43450" x1="28.8183" y1="47.1932" x2="26.3712" y2="44.5932" gradientUnits="userSpaceOnUse">
<stop stop-color="#FD4755" stop-opacity="0"/>
<stop offset="0.2593" stop-color="#F74452" stop-opacity="0.259"/>
<stop offset="0.6276" stop-color="#E43B4C" stop-opacity="0.628"/>
<stop offset="1" stop-color="#CA2E43"/>
</linearGradient>
<linearGradient id="paint3_linear_3403_43450" x1="38.1824" y1="6.21688" x2="44.3" y2="21.409" gradientUnits="userSpaceOnUse">
<stop stop-color="#F89580"/>
<stop offset="1" stop-color="#C4573A"/>
</linearGradient>
<linearGradient id="paint4_linear_3403_43450" x1="37.6282" y1="5.80403" x2="47.4024" y2="22.3839" gradientUnits="userSpaceOnUse">
<stop stop-color="#FFBF51"/>
<stop offset="1" stop-color="#C5715A"/>
</linearGradient>
<linearGradient id="paint5_linear_3403_43450" x1="45.8828" y1="15.1411" x2="50.0096" y2="16.8063" gradientUnits="userSpaceOnUse">
<stop stop-color="#883F2E" stop-opacity="0"/>
<stop offset="0.2979" stop-color="#8B402E" stop-opacity="0.298"/>
<stop offset="0.536" stop-color="#954430" stop-opacity="0.536"/>
<stop offset="0.7533" stop-color="#A64B34" stop-opacity="0.753"/>
<stop offset="0.9572" stop-color="#BE5539" stop-opacity="0.957"/>
<stop offset="1" stop-color="#C4573A"/>
</linearGradient>
<linearGradient id="paint6_linear_3403_43450" x1="41.8999" y1="11.9764" x2="36.1078" y2="17.7685" gradientUnits="userSpaceOnUse">
<stop stop-color="#883F2E" stop-opacity="0"/>
<stop offset="0.2979" stop-color="#8B402E" stop-opacity="0.298"/>
<stop offset="0.536" stop-color="#954430" stop-opacity="0.536"/>
<stop offset="0.7533" stop-color="#A64B34" stop-opacity="0.753"/>
<stop offset="0.9572" stop-color="#BE5539" stop-opacity="0.957"/>
<stop offset="1" stop-color="#C4573A"/>
</linearGradient>
<linearGradient id="paint7_linear_3403_43450" x1="41.0627" y1="9.85891" x2="44.756" y2="13.5521" gradientUnits="userSpaceOnUse">
<stop stop-color="#FFFAF8"/>
<stop offset="1" stop-color="#FFDFCF"/>
</linearGradient>
<linearGradient id="paint8_linear_3403_43450" x1="40.1732" y1="8.96943" x2="47.5654" y2="16.3616" gradientUnits="userSpaceOnUse">
<stop stop-color="#FFDFCF"/>
<stop offset="1" stop-color="#FD8087"/>
</linearGradient>
<linearGradient id="paint9_linear_3403_43450" x1="41.0751" y1="11.6562" x2="37.793" y2="16.8207" gradientUnits="userSpaceOnUse">
<stop stop-color="#FD4755" stop-opacity="0"/>
<stop offset="0.2593" stop-color="#F74452" stop-opacity="0.259"/>
<stop offset="0.6276" stop-color="#E43B4C" stop-opacity="0.628"/>
<stop offset="1" stop-color="#CA2E43"/>
</linearGradient>
<linearGradient id="paint10_linear_3403_43450" x1="40.8422" y1="9.84428" x2="39.2012" y2="6.8034" gradientUnits="userSpaceOnUse">
<stop stop-color="#FD4755" stop-opacity="0"/>
<stop offset="0.2593" stop-color="#F74452" stop-opacity="0.259"/>
<stop offset="0.6276" stop-color="#E43B4C" stop-opacity="0.628"/>
<stop offset="1" stop-color="#CA2E43"/>
</linearGradient>
<linearGradient id="paint11_linear_3403_43450" x1="8.63368" y1="4.07097" x2="17.539" y2="20.868" gradientUnits="userSpaceOnUse">
<stop stop-color="#FFBF51"/>
<stop offset="1" stop-color="#C5715A"/>
</linearGradient>
<linearGradient id="paint12_linear_3403_43450" x1="11.5008" y1="13.276" x2="15.2656" y2="17.1134" gradientUnits="userSpaceOnUse">
<stop stop-color="#883F2E" stop-opacity="0"/>
<stop offset="0.2979" stop-color="#8B402E" stop-opacity="0.298"/>
<stop offset="0.536" stop-color="#954430" stop-opacity="0.536"/>
<stop offset="0.7533" stop-color="#A64B34" stop-opacity="0.753"/>
<stop offset="0.9572" stop-color="#BE5539" stop-opacity="0.957"/>
<stop offset="1" stop-color="#C4573A"/>
</linearGradient>
<linearGradient id="paint13_linear_3403_43450" x1="4.93356" y1="15.7681" x2="1.82036" y2="17.8677" gradientUnits="userSpaceOnUse">
<stop stop-color="#883F2E" stop-opacity="0"/>
<stop offset="0.2979" stop-color="#8B402E" stop-opacity="0.298"/>
<stop offset="0.536" stop-color="#954430" stop-opacity="0.536"/>
<stop offset="0.7533" stop-color="#A64B34" stop-opacity="0.753"/>
<stop offset="0.9572" stop-color="#BE5539" stop-opacity="0.957"/>
<stop offset="1" stop-color="#C4573A"/>
</linearGradient>
<linearGradient id="paint14_linear_3403_43450" x1="11.1612" y1="8.56531" x2="11.5233" y2="18.9186" gradientUnits="userSpaceOnUse">
<stop stop-color="#FFDFCF"/>
<stop offset="1" stop-color="#FD8087"/>
</linearGradient>
<linearGradient id="paint15_linear_3403_43450" x1="10.3349" y1="11.6333" x2="14.5341" y2="16.7014" gradientUnits="userSpaceOnUse">
<stop stop-color="#FD4755" stop-opacity="0"/>
<stop offset="0.2593" stop-color="#F74452" stop-opacity="0.259"/>
<stop offset="0.6276" stop-color="#E43B4C" stop-opacity="0.628"/>
<stop offset="1" stop-color="#CA2E43"/>
</linearGradient>
<linearGradient id="paint16_linear_3403_43450" x1="11.0312" y1="10.2628" x2="12.7688" y2="5.91869" gradientUnits="userSpaceOnUse">
<stop stop-color="#FD4755" stop-opacity="0"/>
<stop offset="0.2593" stop-color="#F74452" stop-opacity="0.259"/>
<stop offset="0.6276" stop-color="#E43B4C" stop-opacity="0.628"/>
<stop offset="1" stop-color="#CA2E43"/>
</linearGradient>
<linearGradient id="paint17_linear_3403_43450" x1="25.7574" y1="34.7486" x2="26.8434" y2="46.2603" gradientUnits="userSpaceOnUse">
<stop stop-color="#FFFAF8"/>
<stop offset="1" stop-color="#FFDFCF"/>
</linearGradient>
<linearGradient id="paint18_linear_3403_43450" x1="25.9999" y1="41.5028" x2="25.9999" y2="46.4933" gradientUnits="userSpaceOnUse">
<stop stop-color="#F89580" stop-opacity="0"/>
<stop offset="0.2599" stop-color="#F2917C" stop-opacity="0.261"/>
<stop offset="0.5954" stop-color="#E2856F" stop-opacity="0.597"/>
<stop offset="0.9709" stop-color="#C8725B" stop-opacity="0.974"/>
<stop offset="0.9972" stop-color="#C5715A"/>
</linearGradient>
<linearGradient id="paint19_linear_3403_43450" x1="35.8589" y1="40.6685" x2="41.3613" y2="46.6779" gradientUnits="userSpaceOnUse">
<stop stop-color="#F89580" stop-opacity="0"/>
<stop offset="0.2599" stop-color="#F2917C" stop-opacity="0.261"/>
<stop offset="0.5954" stop-color="#E2856F" stop-opacity="0.597"/>
<stop offset="0.9709" stop-color="#C8725B" stop-opacity="0.974"/>
<stop offset="0.9972" stop-color="#C5715A"/>
</linearGradient>
<linearGradient id="paint20_linear_3403_43450" x1="40.0404" y1="37.9347" x2="31.9315" y2="39.6722" gradientUnits="userSpaceOnUse">
<stop stop-color="#F89580" stop-opacity="0"/>
<stop offset="0.2599" stop-color="#F2917C" stop-opacity="0.261"/>
<stop offset="0.5954" stop-color="#E2856F" stop-opacity="0.597"/>
<stop offset="0.9709" stop-color="#C8725B" stop-opacity="0.974"/>
<stop offset="0.9972" stop-color="#C5715A"/>
</linearGradient>
<linearGradient id="paint21_linear_3403_43450" x1="17.7644" y1="17.1027" x2="32.2446" y2="41.357" gradientUnits="userSpaceOnUse">
<stop stop-color="#FFBF51"/>
<stop offset="1" stop-color="#C5715A"/>
</linearGradient>
<linearGradient id="paint22_linear_3403_43450" x1="23.3545" y1="34.9093" x2="28.8931" y2="46.4211" gradientUnits="userSpaceOnUse">
<stop stop-color="#FFFAF8"/>
<stop offset="1" stop-color="#FFDFCF"/>
</linearGradient>
<linearGradient id="paint23_linear_3403_43450" x1="29.792" y1="39.2459" x2="39.0111" y2="43.6383" gradientUnits="userSpaceOnUse">
<stop stop-color="#F89580" stop-opacity="0"/>
<stop offset="0.2599" stop-color="#F2917C" stop-opacity="0.261"/>
<stop offset="0.5954" stop-color="#E2856F" stop-opacity="0.597"/>
<stop offset="0.9709" stop-color="#C8725B" stop-opacity="0.974"/>
<stop offset="0.9972" stop-color="#C5715A"/>
</linearGradient>
<linearGradient id="paint24_linear_3403_43450" x1="34.8047" y1="23.3443" x2="44.434" y2="22.0412" gradientUnits="userSpaceOnUse">
<stop stop-color="#883F2E" stop-opacity="0"/>
<stop offset="0.2979" stop-color="#8B402E" stop-opacity="0.298"/>
<stop offset="0.536" stop-color="#954430" stop-opacity="0.536"/>
<stop offset="0.7533" stop-color="#A64B34" stop-opacity="0.753"/>
<stop offset="0.9572" stop-color="#BE5539" stop-opacity="0.957"/>
<stop offset="1" stop-color="#C4573A"/>
</linearGradient>
<linearGradient id="paint25_linear_3403_43450" x1="15.0913" y1="28.5725" x2="18.8397" y2="31.3317" gradientUnits="userSpaceOnUse">
<stop stop-color="#5A5A5A"/>
<stop offset="1" stop-color="#444444"/>
</linearGradient>
<linearGradient id="paint26_linear_3403_43450" x1="33.2054" y1="28.4109" x2="36.5372" y2="30.9099" gradientUnits="userSpaceOnUse">
<stop stop-color="#5A5A5A"/>
<stop offset="1" stop-color="#444444"/>
</linearGradient>
<linearGradient id="paint27_linear_3403_43450" x1="25.9988" y1="41.5976" x2="25.9988" y2="48.2648" gradientUnits="userSpaceOnUse">
<stop stop-color="#F89580" stop-opacity="0"/>
<stop offset="0.2599" stop-color="#F2917C" stop-opacity="0.261"/>
<stop offset="0.5954" stop-color="#E2856F" stop-opacity="0.597"/>
<stop offset="0.9709" stop-color="#C8725B" stop-opacity="0.974"/>
<stop offset="0.9972" stop-color="#C5715A"/>
</linearGradient>
<linearGradient id="paint28_linear_3403_43450" x1="30.1252" y1="41.5449" x2="25.8052" y2="34.3289" gradientUnits="userSpaceOnUse">
<stop stop-color="#F89580" stop-opacity="0"/>
<stop offset="0.2599" stop-color="#F2917C" stop-opacity="0.261"/>
<stop offset="0.5954" stop-color="#E2856F" stop-opacity="0.597"/>
<stop offset="0.9709" stop-color="#C8725B" stop-opacity="0.974"/>
<stop offset="0.9972" stop-color="#C5715A"/>
</linearGradient>
<linearGradient id="paint29_linear_3403_43450" x1="25.3992" y1="36.0229" x2="26.8472" y2="38.6776" gradientUnits="userSpaceOnUse">
<stop stop-color="#5A5A5A"/>
<stop offset="1" stop-color="#444444"/>
</linearGradient>
<clipPath id="clip0_3403_43450">
<rect width="52" height="52" fill="white"/>
</clipPath>
</defs>
</svg>
