<svg width="82" height="82" viewBox="0 0 82 82" fill="none" xmlns="http://www.w3.org/2000/svg">
<path d="M14.851 17.8434L17.2649 16.7851C17.4648 16.698 17.4648 16.4135 17.2649 16.3264L14.8485 15.2706C14.7895 15.245 14.7434 15.1989 14.7203 15.1425L13.6646 12.7261C13.5775 12.5262 13.293 12.5262 13.2059 12.7261L12.1476 15.14C12.122 15.1989 12.0758 15.245 12.0195 15.2681L9.60303 16.3264C9.40316 16.4135 9.40316 16.698 9.60303 16.7851L12.0195 17.8408C12.0784 17.8665 12.1245 17.9126 12.1476 17.969L13.2033 20.3854C13.2905 20.5853 13.5749 20.5853 13.662 20.3854L14.7178 17.969C14.746 17.9126 14.7921 17.8665 14.851 17.8434Z" fill="#F8972C"/>
<path d="M11.8485 28.279C12.2631 28.279 12.5993 27.9428 12.5993 27.5282C12.5993 27.1135 12.2631 26.7773 11.8485 26.7773C11.4338 26.7773 11.0977 27.1135 11.0977 27.5282C11.0977 27.9428 11.4338 28.279 11.8485 28.279Z" fill="#FF881D"/>
<path d="M70.9972 36.307L72.4553 35.669C72.5757 35.6152 72.5757 35.4435 72.4553 35.3922L70.9972 34.7542C70.9613 34.7388 70.9331 34.7106 70.9203 34.6773L70.2823 33.2192C70.2285 33.0988 70.0568 33.0988 70.0055 33.2192L69.3675 34.6773C69.3521 34.7132 69.3239 34.7414 69.2906 34.7542L67.8325 35.3922C67.7121 35.446 67.7121 35.6177 67.8325 35.669L69.2906 36.307C69.3265 36.3224 69.3546 36.3506 69.3675 36.3839L70.0055 37.842C70.0593 37.9624 70.231 37.9624 70.2823 37.842L70.9203 36.3839C70.9357 36.3506 70.9613 36.3224 70.9972 36.307Z" fill="#F8972C"/>
<path d="M66.5533 28.4661C67.6162 28.4661 68.4778 27.6045 68.4778 26.5416C68.4778 25.4788 67.6162 24.6172 66.5533 24.6172C65.4905 24.6172 64.6289 25.4788 64.6289 26.5416C64.6289 27.6045 65.4905 28.4661 66.5533 28.4661Z" fill="#FF881D"/>
<path d="M40.9988 64.5035C48.8661 64.5035 55.2438 56.8076 55.2438 47.3143C55.2438 37.8209 48.8661 30.125 40.9988 30.125C33.1316 30.125 26.7539 37.8209 26.7539 47.3143C26.7539 56.8076 33.1316 64.5035 40.9988 64.5035Z" fill="#EE8972"/>
<path d="M28.1345 20.2298C25.9743 14.8229 26.0204 10.9663 26.3894 8.77539C28.4292 9.65945 31.6912 11.7171 35.0532 16.468L28.1345 20.2298Z" fill="#FF99CA"/>
<path d="M53.8602 20.2298C56.0203 14.8229 55.9742 10.9663 55.6052 8.77539C53.5655 9.65945 50.3034 11.7171 46.9414 16.468L53.8602 20.2298Z" fill="#FF99CA"/>
<path d="M41.0003 39.9107C46.5378 39.8082 53.413 38.8857 57.0492 34.1604C60.9801 29.0508 58.6482 21.0455 55.6937 16.1281C55.6629 16.0769 55.6322 16.0256 55.6014 15.9769C49.026 5.27592 32.9745 5.27592 26.3966 15.9769C26.3658 16.0282 26.3351 16.0769 26.3043 16.1281C23.3498 21.0455 21.0179 29.0508 24.9488 34.1604C28.585 38.8882 35.4627 39.8107 41.0003 39.9107Z" fill="#F8972C"/>
<path d="M57.0543 34.1548C53.4078 38.8929 46.5327 39.8154 40.9977 39.9076C35.4601 39.8154 28.5849 38.8929 24.941 34.1548C24.5567 33.6474 24.2184 33.1093 23.957 32.5404C27.6342 35.7384 33.2461 36.4329 37.8919 36.5251C43.1988 36.4175 49.7973 35.5411 53.2874 31.0029C57.0568 26.1111 54.8095 18.4364 51.9805 13.7163C51.9498 13.6702 51.919 13.6241 51.8883 13.5779C50.9197 12.0097 49.7358 10.6721 48.3956 9.5625C51.2553 10.8847 53.7948 13.0219 55.5937 15.9764C55.6244 16.0226 55.6552 16.0841 55.6859 16.1302C58.6533 21.0502 60.9749 29.0478 57.0543 34.1548Z" fill="#FF881D"/>
<path d="M48.7262 27.8994C44.8902 26.2209 42.4686 24.4016 42.671 20.7628C42.8709 17.1241 41.0003 17.4034 41.0003 17.4034C41.0003 17.4034 39.1271 17.1241 39.3295 20.7628C39.532 24.4016 37.1079 26.2209 33.2744 27.8994C29.4383 29.5778 35.8753 38.2544 41.0003 37.6241C46.1253 38.2544 52.5597 29.5778 48.7262 27.8994Z" fill="#EFEFEF"/>
<path d="M63.78 45.5098V74.7991C63.78 75.9523 62.8319 76.8748 61.7044 76.8748H20.2944C19.1669 76.8748 18.2188 75.9523 18.2188 74.7991V45.5098H63.78Z" fill="#EFC48F"/>
<path d="M56.2821 45.5098V50.1223H18.9875C18.7056 50.1223 18.4237 50.2248 18.2188 50.4298V61.5766H53.8836C55.2084 61.5766 56.2821 62.6503 56.2821 63.9751V74.7991C56.2821 75.9523 55.3596 76.8748 54.2065 76.8748H61.7044C62.8319 76.8748 63.78 75.9523 63.78 74.7991V61.5766V50.4298V45.5098H56.2821Z" fill="#EAB478"/>
<path d="M66.5742 56.9641H15.4215C14.6477 56.9641 14.1121 56.1851 14.3914 55.4625L17.9559 46.217C18.1199 45.7916 18.5299 45.5098 18.986 45.5098H63.0097C63.4659 45.5098 63.8759 45.7916 64.0399 46.217L67.6043 55.4625C67.8836 56.1851 67.348 56.9641 66.5742 56.9641Z" fill="#EFC48F"/>
<path d="M66.5711 56.9641H60.6517C61.4205 56.9641 61.9586 56.1954 61.6767 55.4523L58.1148 46.2273C57.9611 45.7916 57.5511 45.5098 57.0898 45.5098H63.0092C63.4705 45.5098 63.8805 45.7916 64.0342 46.2273L67.5961 55.4523C67.878 56.1954 67.3398 56.9641 66.5711 56.9641Z" fill="#EAB478"/>
<path d="M30.2664 48.3926H20.8672C20.3368 48.3926 19.9062 48.8231 19.9062 49.3535C19.9062 49.884 20.3368 50.3145 20.8672 50.3145H30.2639C30.7943 50.3145 31.2248 49.884 31.2248 49.3535C31.2248 48.8231 30.7969 48.3926 30.2664 48.3926Z" fill="#FFDEBB"/>
<path d="M35.5135 48.3926H33.7812C33.2508 48.3926 32.8203 48.8231 32.8203 49.3535C32.8203 49.884 33.2508 50.3145 33.7812 50.3145H35.5135C36.0439 50.3145 36.4744 49.884 36.4744 49.3535C36.4744 48.8231 36.0439 48.3926 35.5135 48.3926Z" fill="#FFDEBB"/>
<path d="M33.3815 24.6195C34.5307 24.6195 35.4623 23.3689 35.4623 21.8263C35.4623 20.2837 34.5307 19.0332 33.3815 19.0332C32.2324 19.0332 31.3008 20.2837 31.3008 21.8263C31.3008 23.3689 32.2324 24.6195 33.3815 24.6195Z" fill="#303646"/>
<path d="M48.612 24.6195C49.7612 24.6195 50.6928 23.3689 50.6928 21.8263C50.6928 20.2837 49.7612 19.0332 48.612 19.0332C47.4628 19.0332 46.5312 20.2837 46.5312 21.8263C46.5312 23.3689 47.4628 24.6195 48.612 24.6195Z" fill="#303646"/>
<path d="M43.1714 34.0909C44.4758 34.0909 45.6519 33.4196 46.1029 32.4253C46.3208 31.9436 46.1055 31.3721 45.6212 31.1543C45.142 30.9365 44.568 31.1492 44.3502 31.6361C44.2323 31.8974 43.7788 32.1716 43.1714 32.1716C42.6026 32.1716 42.1388 31.9 42.0029 31.6002C41.9594 31.5131 41.9594 31.4874 41.9594 31.4798V31.4746V30.5188C43.0279 29.9807 44.5398 29.0146 44.0068 28.046C43.5225 27.1671 42.5257 27.0569 41.8133 27.1081C41.2726 27.1466 40.7294 27.1466 40.1887 27.1081C39.4763 27.0569 38.4795 27.1671 37.9952 28.046C37.4596 29.0146 38.9715 29.9807 40.0426 30.5188V31.3542C40.0144 31.4464 39.9837 31.5413 39.9837 31.6386C39.8658 31.9026 39.3994 32.1742 38.8306 32.1742C38.2207 32.1742 37.7671 31.8974 37.6493 31.6361C37.4289 31.1543 36.8574 30.9468 36.3757 31.1569C35.8939 31.3773 35.6787 31.9487 35.8991 32.4304C36.3578 33.4426 37.5083 34.0935 38.8306 34.0935C39.6711 34.0935 40.4398 33.7886 41.0087 33.3196C41.575 33.7886 42.3361 34.0909 43.1714 34.0909Z" fill="#303646"/>
<path d="M40.9969 66.4453C38.8957 66.4453 37.0993 68.0392 36.3844 70.2891C35.9923 71.5191 36.756 72.6876 38.0295 72.8977C38.911 73.0437 39.9053 73.1411 40.9969 73.1411C42.0885 73.1411 43.0828 73.0437 43.9643 72.8977C45.2378 72.6876 46.0015 71.5216 45.6094 70.2891C44.8945 68.0392 43.0982 66.4453 40.9969 66.4453Z" fill="#303646"/>
<path d="M36.0698 66.6501C36.9257 66.6501 37.6202 65.7686 37.6202 64.6795C37.6202 63.593 36.9257 62.709 36.0698 62.709C35.214 62.709 34.5195 63.5905 34.5195 64.6795C34.5195 65.7686 35.214 66.6501 36.0698 66.6501Z" fill="#303646"/>
<path d="M40.9956 64.6384C41.8515 64.6384 42.5459 63.7569 42.5459 62.6678C42.5459 61.5788 41.8515 60.6973 40.9956 60.6973C40.1397 60.6973 39.4453 61.5788 39.4453 62.6678C39.4453 63.7569 40.1397 64.6384 40.9956 64.6384Z" fill="#303646"/>
<path d="M45.9253 66.6501C46.7812 66.6501 47.4756 65.7686 47.4756 64.6795C47.4756 63.593 46.7812 62.709 45.9253 62.709C45.0694 62.709 44.375 63.5905 44.375 64.6795C44.375 65.7686 45.0694 66.6501 45.9253 66.6501Z" fill="#303646"/>
<path d="M33.9457 22.0778C34.2868 22.0778 34.5633 21.7325 34.5633 21.3065C34.5633 20.8805 34.2868 20.5352 33.9457 20.5352C33.6046 20.5352 33.3281 20.8805 33.3281 21.3065C33.3281 21.7325 33.6046 22.0778 33.9457 22.0778Z" fill="#EFEFEF"/>
<path d="M48.0512 22.0778C48.3922 22.0778 48.6687 21.7325 48.6687 21.3065C48.6687 20.8805 48.3922 20.5352 48.0512 20.5352C47.7101 20.5352 47.4336 20.8805 47.4336 21.3065C47.4336 21.7325 47.7101 22.0778 48.0512 22.0778Z" fill="#EFEFEF"/>
<path d="M43.1926 28.1767C43.372 28.7071 42.6058 29.2811 42.4776 29.212C42.388 29.1607 42.6468 28.7994 42.4905 28.374C42.3444 27.9768 41.9626 27.8692 41.9985 27.7821C42.0523 27.654 43.0132 27.6437 43.1926 28.1767Z" fill="#EFEFEF"/>
<g clipPath="url(#clip0_3403_44335)">
<path d="M50.6341 3.50387L45.755 6.11707C43.3684 7.39528 43.3615 10.8149 45.743 12.1026L51.1067 15.003C53.4881 16.2908 56.3459 14.4129 56.1089 11.716L55.6243 6.2024C55.4109 3.77296 52.784 2.35246 50.6341 3.50387Z" fill="url(#paint0_linear_3403_44335)"/>
<path d="M50.6341 3.50387L45.755 6.11707C43.3684 7.39528 43.3615 10.8149 45.743 12.1026L51.1067 15.003C53.4881 16.2908 56.3459 14.4129 56.1089 11.716L55.6243 6.2024C55.4109 3.77296 52.784 2.35246 50.6341 3.50387Z" fill="url(#paint1_linear_3403_44335)"/>
<path d="M50.8629 5.78797L48.2013 7.21346C46.8994 7.91072 46.8956 9.77606 48.1948 10.4786L51.1207 12.0608C52.4198 12.7633 53.9786 11.7389 53.8493 10.2677L53.585 7.26C53.4685 5.93478 52.0356 5.15993 50.8629 5.78797Z" fill="url(#paint2_linear_3403_44335)"/>
<path d="M30.3714 3.50387L35.2506 6.11707C37.6371 7.39528 37.644 10.8149 35.2625 12.1026L29.8988 15.003C27.5174 16.2908 24.6596 14.4129 24.8966 11.716L25.3812 6.2024C25.5947 3.77296 28.2216 2.35246 30.3714 3.50387Z" fill="url(#paint3_linear_3403_44335)"/>
<path d="M30.1424 5.78797L32.804 7.21346C34.1059 7.91072 34.1097 9.77606 32.8105 10.4786L29.8847 12.0608C28.5855 12.7633 27.0267 11.7389 27.156 10.2677L27.4203 7.26C27.5368 5.93478 28.9697 5.15993 30.1424 5.78797Z" fill="url(#paint4_linear_3403_44335)"/>
<path d="M62.3594 25.207C60.5406 23.325 58.7053 20.3581 57.0854 17.0188C56.8756 16.5864 56.6968 16.1357 56.5349 15.6775C54.6194 10.2581 50.7016 7.3568 45.2826 6.55273H35.7176C30.8087 7.9514 27.0716 10.6229 25.1561 16.0422C24.9942 16.5003 24.8155 16.9511 24.6057 17.3835C24.2209 18.1767 22.488 18.584 22.0821 19.3256C20.7789 21.7062 19.3824 23.772 17.9956 25.2069C16.535 26.7184 16.7126 29.3782 18.324 30.6777C19.413 31.556 21.1485 33.0727 22.974 34.7007C27.9722 39.1578 34.143 41.585 40.5001 41.585C46.8571 41.585 53.028 39.1578 58.026 34.7008C59.8515 33.0728 61.587 31.556 62.6761 30.6778C63.0527 30.3741 63.351 29.9961 63.5684 29.5757C64.281 28.1977 63.4786 26.3652 62.3594 25.207Z" fill="url(#paint5_linear_3403_44335)"/>
<path d="M17.9956 25.2061C16.535 26.7176 16.7126 29.3774 18.324 30.6769C19.413 31.5551 21.1485 33.0719 22.974 34.6998C27.9721 39.1569 34.1429 41.584 40.5 41.584C46.8571 41.584 53.0279 39.1569 58.0259 34.6998C59.8514 33.0719 61.5869 31.555 62.676 30.6769C64.2873 29.3775 64.465 26.7176 63.0043 25.2061C62.3728 24.5526 61.7393 23.7681 61.1134 22.8828H19.8864C19.2607 23.7681 18.6271 24.5526 17.9956 25.2061Z" fill="url(#paint6_linear_3403_44335)"/>
<path d="M23.8221 15.6757C23.6601 16.1338 23.4814 16.5845 23.2716 17.017C22.9251 17.7313 22.5686 18.4286 22.2047 19.1018C21.6468 20.1337 21.961 21.4196 22.9362 22.0716C24.0011 22.7838 25.4442 22.4734 26.1222 21.3864L27.88 18.5681C28.7168 17.2265 30.334 16.5919 31.86 17.0065C33.6164 17.4838 35.4516 16.5685 36.127 14.8784L38.089 9.9687C38.3534 9.30701 38.3169 8.56303 37.9889 7.93046C37.5495 7.0829 36.6743 6.55078 35.7196 6.55078C30.3999 6.55097 25.7376 10.2564 23.8221 15.6757Z" fill="url(#paint7_linear_3403_44335)"/>
<path d="M63.0042 25.207C61.1854 23.325 59.3501 20.3581 57.7302 17.0188C57.5204 16.5864 57.3416 16.1357 57.1797 15.6775C55.2642 10.2581 50.6019 6.55273 45.2824 6.55273C44.3691 6.55273 43.5188 7.01877 43.0276 7.78874L39.8076 12.8359C38.274 15.2396 38.9548 18.4294 41.3361 19.9976C43.3358 21.3145 44.1821 23.8239 43.3884 26.0829L42.4607 28.7234C41.684 30.934 42.4836 33.391 44.4126 34.7211C46.4402 36.1192 49.171 35.901 50.9509 34.1987L53.6432 31.6237C56.2857 29.0964 60.1398 28.3007 63.5671 29.5751C64.2797 28.1972 64.1235 26.3652 63.0042 25.207Z" fill="url(#paint8_linear_3403_44335)"/>
<path d="M63.0042 25.207C61.1854 23.325 59.3501 20.3581 57.7302 17.0188C57.5204 16.5864 57.3416 16.1357 57.1797 15.6775C55.2642 10.2581 50.6019 6.55273 45.2824 6.55273C44.3691 6.55273 43.5188 7.01877 43.0276 7.78874L39.8076 12.8359C38.274 15.2396 38.9548 18.4294 41.3361 19.9976C43.3358 21.3145 44.1821 23.8239 43.3884 26.0829L42.4607 28.7234C41.684 30.934 42.4836 33.391 44.4126 34.7211C46.4402 36.1192 49.171 35.901 50.9509 34.1987L53.6432 31.6237C56.2857 29.0964 60.1398 28.3007 63.5671 29.5751C64.2797 28.1972 64.1235 26.3652 63.0042 25.207Z" fill="url(#paint9_linear_3403_44335)"/>
<path d="M32.2292 28.6374C30.8816 28.6374 29.7891 27.5449 29.7891 26.1973V24.946C29.7891 23.5984 30.8815 22.5059 32.2292 22.5059C33.5768 22.5059 34.6693 23.5984 34.6693 24.946V26.1973C34.6693 27.545 33.5768 28.6374 32.2292 28.6374Z" fill="url(#paint10_linear_3403_44335)"/>
<path d="M48.7683 28.6374C47.4206 28.6374 46.3281 27.5449 46.3281 26.1973V24.946C46.3281 23.5984 47.4206 22.5059 48.7683 22.5059C50.1159 22.5059 51.2084 23.5984 51.2084 24.946V26.1973C51.2084 27.545 50.1159 28.6374 48.7683 28.6374Z" fill="url(#paint11_linear_3403_44335)"/>
<path d="M36.4264 27.791C33.848 27.791 31.7578 29.6464 31.7578 31.9351C31.7578 33.4762 32.7061 34.8197 34.1123 35.5338H34.7707C36.709 35.5338 38.5764 34.8042 40.0014 33.4903C40.2256 33.2836 40.5461 33.2422 40.8095 33.3648C40.9941 32.9192 41.0949 32.4376 41.0949 31.9351C41.095 29.6464 39.0048 27.791 36.4264 27.791Z" fill="url(#paint12_linear_3403_44335)"/>
<path d="M44.5709 27.791C41.9926 27.791 39.9023 29.6464 39.9023 31.9351C39.9023 32.4377 40.0033 32.9192 40.1878 33.3648C40.4511 33.2421 40.7717 33.2836 40.9958 33.4903C42.4208 34.8042 44.2882 35.5338 46.2265 35.5338H46.8849C48.2911 34.8197 49.2394 33.4762 49.2394 31.9351C49.2395 29.6464 47.1493 27.791 44.5709 27.791Z" fill="url(#paint13_linear_3403_44335)"/>
<path d="M39.1711 30.6032L38.3168 29.8463C37.4902 29.1139 38.0082 27.748 39.1126 27.748H41.8898C42.9942 27.748 43.5122 29.1139 42.6856 29.8463L41.8313 30.6032C41.0721 31.2757 39.9303 31.2757 39.1711 30.6032Z" fill="url(#paint14_linear_3403_44335)"/>
<path d="M36.7468 30.454C36.7245 30.454 36.7019 30.4524 36.6792 30.4492L29.3991 29.4257C29.1357 29.3887 28.9521 29.145 28.9891 28.8815C29.0262 28.618 29.27 28.4346 29.5333 28.4715L36.8133 29.495C37.0768 29.5321 37.2604 29.7757 37.2233 30.0392C37.1894 30.28 36.9832 30.454 36.7468 30.454Z" fill="url(#paint15_linear_3403_44335)"/>
<path d="M29.4657 32.6631C29.2293 32.6631 29.023 32.4891 28.9891 32.2483C28.9521 31.9848 29.1357 31.7412 29.3991 31.7041L36.6792 30.6806C36.9428 30.6431 37.1863 30.8272 37.2233 31.0906C37.2604 31.3541 37.0768 31.5978 36.8133 31.6348L29.5333 32.6583C29.5106 32.6615 29.488 32.6631 29.4657 32.6631Z" fill="url(#paint16_linear_3403_44335)"/>
<path d="M44.2547 30.454C44.277 30.454 44.2996 30.4524 44.3224 30.4492L51.6024 29.4257C51.8659 29.3887 52.0495 29.145 52.0124 28.8815C51.9754 28.618 51.7315 28.4346 51.4682 28.4715L44.1882 29.495C43.9247 29.5321 43.7411 29.7757 43.7782 30.0392C43.8121 30.28 44.0183 30.454 44.2547 30.454Z" fill="url(#paint17_linear_3403_44335)"/>
<path d="M51.5359 32.6631C51.7722 32.6631 51.9785 32.4891 52.0124 32.2483C52.0495 31.9848 51.8659 31.7412 51.6024 31.7041L44.3224 30.6806C44.0587 30.6431 43.8152 30.8272 43.7782 31.0906C43.7411 31.3541 43.9247 31.5978 44.1882 31.6348L51.4682 32.6583C51.491 32.6615 51.5136 32.6631 51.5359 32.6631Z" fill="url(#paint18_linear_3403_44335)"/>
<path d="M41.9098 34.21C41.7587 34.8487 41.1855 35.3233 40.4998 35.3233C39.8142 35.3233 39.241 34.8487 39.0898 34.21C39.4096 33.9944 39.7147 33.7529 40.0022 33.4885C40.1423 33.3594 40.3211 33.2949 40.4989 33.2949H40.5008C40.6786 33.2949 40.8574 33.3594 40.9975 33.4885C41.285 33.7529 41.5901 33.9944 41.9098 34.21Z" fill="url(#paint19_linear_3403_44335)"/>
</g>
<defs>
<linearGradient id="paint0_linear_3403_44335" x1="48.8724" y1="4.44826" x2="51.3383" y2="12.725" gradientUnits="userSpaceOnUse">
<stop stop-color="#F89580"/>
<stop offset="1" stop-color="#C4573A"/>
</linearGradient>
<linearGradient id="paint1_linear_3403_44335" x1="51.3521" y1="7.24276" x2="49.6318" y2="11.6048" gradientUnits="userSpaceOnUse">
<stop stop-color="#C4573A" stop-opacity="0"/>
<stop offset="0.2529" stop-color="#BA5338" stop-opacity="0.253"/>
<stop offset="0.6769" stop-color="#A04933" stop-opacity="0.677"/>
<stop offset="1" stop-color="#883F2E"/>
</linearGradient>
<linearGradient id="paint2_linear_3403_44335" x1="49.9226" y1="5.79627" x2="51.3357" y2="12.6159" gradientUnits="userSpaceOnUse">
<stop stop-color="#FFDFCF"/>
<stop offset="1" stop-color="#FFA78F"/>
</linearGradient>
<linearGradient id="paint3_linear_3403_44335" x1="26.6483" y1="6.24526" x2="32.4672" y2="12.0641" gradientUnits="userSpaceOnUse">
<stop stop-color="#F89580"/>
<stop offset="1" stop-color="#C4573A"/>
</linearGradient>
<linearGradient id="paint4_linear_3403_44335" x1="28.1515" y1="7.3234" x2="31.7481" y2="10.9199" gradientUnits="userSpaceOnUse">
<stop stop-color="#FFDFCF"/>
<stop offset="1" stop-color="#FFA78F"/>
</linearGradient>
<linearGradient id="paint5_linear_3403_44335" x1="33.2703" y1="10.0532" x2="44.5761" y2="38.6679" gradientUnits="userSpaceOnUse">
<stop stop-color="#F9F5F3"/>
<stop offset="1" stop-color="#EFE2DD"/>
</linearGradient>
<linearGradient id="paint6_linear_3403_44335" x1="40.5" y1="33.4809" x2="40.5" y2="41.1387" gradientUnits="userSpaceOnUse">
<stop stop-color="#E1D3CE" stop-opacity="0"/>
<stop offset="0.2298" stop-color="#DFCECA" stop-opacity="0.23"/>
<stop offset="0.4933" stop-color="#D9C1BD" stop-opacity="0.493"/>
<stop offset="0.7725" stop-color="#CFAAA8" stop-opacity="0.773"/>
<stop offset="1" stop-color="#C59191"/>
</linearGradient>
<linearGradient id="paint7_linear_3403_44335" x1="28.0983" y1="9.54745" x2="31.6933" y2="18.6463" gradientUnits="userSpaceOnUse">
<stop stop-color="#F89580"/>
<stop offset="1" stop-color="#C4573A"/>
</linearGradient>
<linearGradient id="paint8_linear_3403_44335" x1="44.9225" y1="8.57281" x2="53.7789" y2="30.9882" gradientUnits="userSpaceOnUse">
<stop stop-color="#F89580"/>
<stop offset="1" stop-color="#C4573A"/>
</linearGradient>
<linearGradient id="paint9_linear_3403_44335" x1="52.4131" y1="19.3845" x2="59.417" y2="17.357" gradientUnits="userSpaceOnUse">
<stop stop-color="#C4573A" stop-opacity="0"/>
<stop offset="0.2529" stop-color="#BA5338" stop-opacity="0.253"/>
<stop offset="0.6769" stop-color="#A04933" stop-opacity="0.677"/>
<stop offset="1" stop-color="#883F2E"/>
</linearGradient>
<linearGradient id="paint10_linear_3403_44335" x1="30.6377" y1="24.4001" x2="34.0257" y2="26.8941" gradientUnits="userSpaceOnUse">
<stop stop-color="#5A5A5A"/>
<stop offset="1" stop-color="#444444"/>
</linearGradient>
<linearGradient id="paint11_linear_3403_44335" x1="47.0116" y1="24.2541" x2="50.0231" y2="26.5127" gradientUnits="userSpaceOnUse">
<stop stop-color="#5A5A5A"/>
<stop offset="1" stop-color="#444444"/>
</linearGradient>
<linearGradient id="paint12_linear_3403_44335" x1="37.1123" y1="33.2163" x2="33.4665" y2="26.4044" gradientUnits="userSpaceOnUse">
<stop stop-color="white" stop-opacity="0"/>
<stop offset="1" stop-color="white"/>
</linearGradient>
<linearGradient id="paint13_linear_3403_44335" x1="44.8518" y1="32.906" x2="42.6452" y2="25.2786" gradientUnits="userSpaceOnUse">
<stop stop-color="white" stop-opacity="0"/>
<stop offset="1" stop-color="white"/>
</linearGradient>
<linearGradient id="paint14_linear_3403_44335" x1="39.176" y1="27.6209" x2="42.9774" y2="31.4222" gradientUnits="userSpaceOnUse">
<stop stop-color="#FEAEE1"/>
<stop offset="0.1963" stop-color="#FEA3D7"/>
<stop offset="0.5371" stop-color="#FE87BF"/>
<stop offset="0.9794" stop-color="#FE5996"/>
<stop offset="1" stop-color="#FE5694"/>
</linearGradient>
<linearGradient id="paint15_linear_3403_44335" x1="33.1062" y1="29.6777" x2="33.1062" y2="30.2767" gradientUnits="userSpaceOnUse">
<stop stop-color="#5A5A5A"/>
<stop offset="1" stop-color="#444444"/>
</linearGradient>
<linearGradient id="paint16_linear_3403_44335" x1="33.0575" y1="31.515" x2="33.334" y2="32.3905" gradientUnits="userSpaceOnUse">
<stop stop-color="#5A5A5A"/>
<stop offset="1" stop-color="#444444"/>
</linearGradient>
<linearGradient id="paint17_linear_3403_44335" x1="47.8046" y1="28.8252" x2="47.9429" y2="29.7929" gradientUnits="userSpaceOnUse">
<stop stop-color="#5A5A5A"/>
<stop offset="1" stop-color="#444444"/>
</linearGradient>
<linearGradient id="paint18_linear_3403_44335" x1="48.0458" y1="30.9542" x2="47.8615" y2="31.8297" gradientUnits="userSpaceOnUse">
<stop stop-color="#5A5A5A"/>
<stop offset="1" stop-color="#444444"/>
</linearGradient>
<linearGradient id="paint19_linear_3403_44335" x1="39.8295" y1="33.6917" x2="41.7524" y2="35.6146" gradientUnits="userSpaceOnUse">
<stop stop-color="#FFDFCF"/>
<stop offset="1" stop-color="#FFA78F"/>
</linearGradient>
<clipPath id="clip0_3403_44335">
<rect width="47" height="47" fill="white" transform="translate(17 3.09766)"/>
</clipPath>
</defs>
</svg>
