<svg width="64" height="64" viewBox="0 0 64 64" fill="none" xmlns="http://www.w3.org/2000/svg">
<path d="M15.092 16.0367H7.83984V15.578C7.83984 14.7248 8.53142 14.0332 9.38463 14.0332H13.5473C14.4005 14.0332 15.092 14.7248 15.092 15.578V16.0367Z" fill="url(#paint0_linear_3403_43964)"/>
<path d="M56.1585 16.0367H48.9062V15.578C48.9062 14.7248 49.5978 14.0332 50.451 14.0332H54.6137C55.4669 14.0332 56.1585 14.7248 56.1585 15.578V16.0367Z" fill="url(#paint1_linear_3403_43964)"/>
<path d="M47.578 18.535H42.5509V13.3678C42.5509 12.2042 41.6041 11.2574 40.4406 11.2574H23.5593C22.3956 11.2574 21.4489 12.2042 21.4489 13.3678V18.535H16.4219V13.3678C16.4219 9.43223 19.6236 6.23047 23.5593 6.23047H40.4406C44.3762 6.23047 47.578 9.43235 47.578 13.3678V18.535Z" fill="url(#paint2_linear_3403_43964)"/>
<path d="M47.5779 18.535V13.3678C47.5779 13.2972 47.5746 13.2272 47.5725 13.157L40.6512 6.23586C40.581 6.23386 40.511 6.23047 40.4404 6.23047H39.0273V11.2575H40.4405C41.6042 11.2575 42.5509 12.2043 42.5509 13.368V18.5352H47.5779V18.535Z" fill="url(#paint3_linear_3403_43964)"/>
<path d="M38.7337 4.98438C39.8873 4.98438 40.8225 5.91953 40.8225 7.07316V10.7225C40.8225 11.5254 40.171 12.1752 39.3699 12.1752H38.7455C38.3176 12.1752 37.9331 11.9906 37.6674 11.6966C37.4676 11.4756 37.1181 11.4756 36.9183 11.6966C36.6527 11.9906 36.2682 12.1752 35.8403 12.1752H35.2158C34.7885 12.1752 34.4038 11.9904 34.1379 11.6961C33.9382 11.4752 33.5886 11.4754 33.3891 11.6962C33.1233 11.9904 32.7388 12.1751 32.3106 12.1751H31.6878C31.2596 12.1751 30.8751 11.9904 30.6093 11.6962C30.4097 11.4752 30.0602 11.4751 29.8605 11.6961C29.5945 11.9904 29.2099 12.1752 28.7826 12.1752H28.1581C27.7302 12.1752 27.3457 11.9906 27.08 11.6966C26.8803 11.4756 26.5308 11.4756 26.331 11.6966C26.0652 11.9906 25.6808 12.1752 25.2528 12.1752H24.6283C23.8271 12.1752 23.1758 11.5256 23.1758 10.7225V7.07316C23.1758 5.91953 24.1109 4.98438 25.2646 4.98438H38.7337Z" fill="url(#paint4_linear_3403_43964)"/>
<path d="M36.6971 9.39832H27.3067C26.5763 9.39832 25.9844 8.80625 25.9844 8.07603V7.94338C25.9844 7.21303 26.5764 6.62109 27.3067 6.62109H36.6971C37.4275 6.62109 38.0194 7.21316 38.0194 7.94338V8.07603C38.0194 8.80625 37.4275 9.39832 36.6971 9.39832Z" fill="url(#paint5_linear_3403_43964)"/>
<path d="M58.9464 59.0186H5.05362C2.26259 59.0186 0 56.756 0 53.9649V20.6474C0 17.8563 2.26259 15.5938 5.05362 15.5938H58.9463C61.7373 15.5938 63.9999 17.8563 63.9999 20.6474V53.9649C64 56.756 61.7374 59.0186 58.9464 59.0186Z" fill="url(#paint6_linear_3403_43964)"/>
<path d="M0 44.2637V53.9648C0 56.7558 2.26259 59.0184 5.05362 59.0184H58.9463C61.7373 59.0184 63.9999 56.7558 63.9999 53.9648V44.2637H0Z" fill="url(#paint7_linear_3403_43964)"/>
<path d="M32.0008 51.8806C40.0504 51.8806 46.5759 45.3551 46.5759 37.3055C46.5759 29.2559 40.0504 22.7305 32.0008 22.7305C23.9513 22.7305 17.4258 29.2559 17.4258 37.3055C17.4258 45.3551 23.9513 51.8806 32.0008 51.8806Z" fill="url(#paint8_linear_3403_43964)"/>
<path d="M46.2701 40.2912L35.1025 29.17C34.9053 28.8104 34.5233 28.5664 34.0841 28.5664H29.9191C29.278 28.5664 28.7583 29.0861 28.7583 29.7272V34.063H24.4225C23.7814 34.063 23.2617 34.5827 23.2617 35.2238V39.3888C23.2617 39.8279 23.5057 40.2099 23.8653 40.4072L34.9828 51.5757C40.6388 50.3999 45.093 45.9467 46.2701 40.2912Z" fill="url(#paint9_linear_3403_43964)"/>
<path d="M39.5768 40.5496H35.241V44.8854C35.241 45.5265 34.7213 46.0462 34.0802 46.0462H29.9152C29.2741 46.0462 28.7544 45.5265 28.7544 44.8854V40.5496H24.4186C23.7775 40.5496 23.2578 40.0299 23.2578 39.3888V35.2238C23.2578 34.5827 23.7775 34.063 24.4186 34.063H28.7544V29.7272C28.7544 29.0861 29.2741 28.5664 29.9152 28.5664H34.0802C34.7213 28.5664 35.241 29.0861 35.241 29.7272V34.063H39.5768C40.2179 34.063 40.7376 34.5827 40.7376 35.2238V39.3888C40.7375 40.0298 40.2178 40.5496 39.5768 40.5496Z" fill="url(#paint10_linear_3403_43964)"/>
<path d="M34.0786 46.0461H31.9961V28.5664H34.0786C34.7197 28.5664 35.2394 29.0861 35.2394 29.7272V44.8853C35.2394 45.5264 34.7197 46.0461 34.0786 46.0461Z" fill="url(#paint11_linear_3403_43964)"/>
<path d="M40.7373 35.2233V37.3058H23.2578V35.2233C23.2578 34.5822 23.7775 34.0625 24.4186 34.0625H39.5767C40.2177 34.0626 40.7373 34.5823 40.7373 35.2233Z" fill="url(#paint12_linear_3403_43964)"/>
<defs>
<linearGradient id="paint0_linear_3403_43964" x1="11.4659" y1="14.1444" x2="11.4659" y2="15.5311" gradientUnits="userSpaceOnUse">
<stop stop-color="#F8F6FB"/>
<stop offset="1" stop-color="#EFDCFB"/>
</linearGradient>
<linearGradient id="paint1_linear_3403_43964" x1="52.5324" y1="14.1444" x2="52.5324" y2="15.5311" gradientUnits="userSpaceOnUse">
<stop stop-color="#F8F6FB"/>
<stop offset="1" stop-color="#EFDCFB"/>
</linearGradient>
<linearGradient id="paint2_linear_3403_43964" x1="32" y1="7.8843" x2="32" y2="15.3554" gradientUnits="userSpaceOnUse">
<stop stop-color="#8A7889"/>
<stop offset="0.3639" stop-color="#877586"/>
<stop offset="0.6755" stop-color="#7F6A7E"/>
<stop offset="0.967" stop-color="#705970"/>
<stop offset="1" stop-color="#6E566E"/>
</linearGradient>
<linearGradient id="paint3_linear_3403_43964" x1="46.016" y1="16.8003" x2="32.8262" y2="3.61049" gradientUnits="userSpaceOnUse">
<stop stop-color="#6E566E" stop-opacity="0"/>
<stop offset="0.2944" stop-color="#674D66" stop-opacity="0.294"/>
<stop offset="1" stop-color="#593B56"/>
</linearGradient>
<linearGradient id="paint4_linear_3403_43964" x1="31.999" y1="5.65261" x2="31.999" y2="12.8905" gradientUnits="userSpaceOnUse">
<stop stop-color="#FFD945"/>
<stop offset="0.3043" stop-color="#FFCD3E"/>
<stop offset="0.8558" stop-color="#FFAD2B"/>
<stop offset="1" stop-color="#FFA325"/>
</linearGradient>
<linearGradient id="paint5_linear_3403_43964" x1="32.0019" y1="9.69284" x2="32.0019" y2="5.08271" gradientUnits="userSpaceOnUse">
<stop stop-color="#FFD945"/>
<stop offset="0.3043" stop-color="#FFCD3E"/>
<stop offset="0.8558" stop-color="#FFAD2B"/>
<stop offset="1" stop-color="#FFA325"/>
</linearGradient>
<linearGradient id="paint6_linear_3403_43964" x1="26.1893" y1="20.2158" x2="43.8695" y2="72.2164" gradientUnits="userSpaceOnUse">
<stop stop-color="#FF7044"/>
<stop offset="1" stop-color="#F82814"/>
</linearGradient>
<linearGradient id="paint7_linear_3403_43964" x1="32" y1="51.7198" x2="32" y2="57.3099" gradientUnits="userSpaceOnUse">
<stop stop-color="#F82814" stop-opacity="0"/>
<stop offset="1" stop-color="#C0272D"/>
</linearGradient>
<linearGradient id="paint8_linear_3403_43964" x1="23.198" y1="28.5026" x2="43.5404" y2="48.8451" gradientUnits="userSpaceOnUse">
<stop stop-color="#F8F6FB"/>
<stop offset="1" stop-color="#EFDCFB"/>
</linearGradient>
<linearGradient id="paint9_linear_3403_43964" x1="47.9111" y1="53.2158" x2="15.1274" y2="20.4321" gradientUnits="userSpaceOnUse">
<stop stop-color="#EFDCFB" stop-opacity="0"/>
<stop offset="0.4856" stop-color="#BAAAD6" stop-opacity="0.486"/>
<stop offset="1" stop-color="#8679B2"/>
</linearGradient>
<linearGradient id="paint10_linear_3403_43964" x1="27.1705" y1="32.4791" x2="38.3257" y2="43.6343" gradientUnits="userSpaceOnUse">
<stop stop-color="#FF7044"/>
<stop offset="1" stop-color="#F82814"/>
</linearGradient>
<linearGradient id="paint11_linear_3403_43964" x1="33.4819" y1="37.1463" x2="16.412" y2="46.2958" gradientUnits="userSpaceOnUse">
<stop stop-color="#F82814" stop-opacity="0"/>
<stop offset="1" stop-color="#C0272D"/>
</linearGradient>
<linearGradient id="paint12_linear_3403_43964" x1="31.8375" y1="35.8201" x2="40.9869" y2="52.89" gradientUnits="userSpaceOnUse">
<stop stop-color="#F82814" stop-opacity="0"/>
<stop offset="1" stop-color="#C0272D"/>
</linearGradient>
</defs>
</svg>
