<svg id="phone-call_2_" data-name="phone-call(2)" xmlns="http://www.w3.org/2000/svg" width="21.298" height="21.298" viewBox="0 0 21.298 21.298">
  <g id="Group_23" data-name="Group 23" transform="translate(0 0)">
    <path id="Path_24" data-name="Path 24" d="M32.556,26.789l-1.948-1.948a1.56,1.56,0,0,0-2.175.044c-1.268,1.408-1.77,1.587-1.9,1.635a3.566,3.566,0,0,1-.68.044c-1.813,0-4.219-1.36-5.893-3.448-1.408-1.722-2.088-3.583-1.813-4.986a5.685,5.685,0,0,1,1.635-1.9,1.441,1.441,0,0,0,.5-1.09,1.6,1.6,0,0,0-.453-1.09L17.872,12.1a1.516,1.516,0,0,0-1.9-.183c-1.953,1.408-4.267,3.313-4.267,4.672,0,5.806,10.565,16.371,16.371,16.371,1.408,0,3.308-2.314,4.672-4.263A1.511,1.511,0,0,0,32.556,26.789Zm-.5,1.451c-1.678,2.358-3.221,3.853-3.945,3.853-5.352,0-15.508-10.156-15.508-15.508,0-.771,1.451-2.267,3.853-3.945a.569.569,0,0,1,.771.135l1.948,1.948a.671.671,0,0,1-.044.907c-1.543,1.408-1.813,2.04-1.9,2.4-.318,1.678.41,3.762,2,5.714,1.861,2.267,4.446,3.762,6.573,3.762a4.808,4.808,0,0,0,.863-.092c.362-.092,1-.362,2.4-1.9a.646.646,0,0,1,.907-.044l2,2A.572.572,0,0,1,32.059,28.241Z" transform="translate(-11.7 -11.659)" fill="#00339c"/>
    <path id="Path_25" data-name="Path 25" d="M274.82,47.483a6.434,6.434,0,0,1,1.77,5.666l.863.135a7.434,7.434,0,0,0-2-6.438A7.284,7.284,0,0,0,268.7,44.9l.183.863A6.312,6.312,0,0,1,274.82,47.483Z" transform="translate(-257.498 -43.28)" fill="#00339c"/>
    <path id="Path_26" data-name="Path 26" d="M285.043,125.094a4.135,4.135,0,0,0-1.133-3.626,4.055,4.055,0,0,0-3.809-1.09l.183.863a3.287,3.287,0,0,1,2.994.863,3.2,3.2,0,0,1,.907,2.855Z" transform="translate(-268.401 -115.538)" fill="#00339c"/>
  </g>
</svg>
