<svg xmlns="http://www.w3.org/2000/svg" width="64.182" height="81.042" viewBox="0 0 64.182 81.042">
  <g id="_657011" data-name="657011" transform="translate(-19.233 -1000.658)">
    <g id="Group_24" data-name="Group 24" transform="translate(6.008 992.36)">
      <path id="Path_27" data-name="Path 27" d="M26.261,1000.661a2.4,2.4,0,0,0-1.393.439c-.87.685-.895,2.01-.32,3.91a34.294,34.294,0,0,0,3.7,7.487c.526.853,1.1,1.73,1.7,2.624a24.544,24.544,0,0,0-3.493,19.009c-3.011-1.324-4.835-2.75-5.374-3.916a2.074,2.074,0,0,1,.368-2.414,10.344,10.344,0,0,1,4.194-2.72l-.669-1.532a11.543,11.543,0,0,0-4.844,3.212,3.906,3.906,0,0,0-.543,4.107c.968,2.094,3.5,3.824,7.422,5.3a24.857,24.857,0,0,0,10.511,13.542c-.385.3-.777.62-1.154.9a37.242,37.242,0,0,1-6.747,4.272,6.065,6.065,0,0,1-1.722.533,1.242,1.242,0,0,1-.953-.2c-.522-.389-.7-1.452-.181-3.2a32.485,32.485,0,0,1,3.516-7.144l-2.1.265a33.6,33.6,0,0,0-3.658,7.448c-.559,1.886-.52,3.2.375,3.865a2.954,2.954,0,0,0,2.065.385,10.663,10.663,0,0,0,3.041-.9,40.339,40.339,0,0,0,7.752-4.853c.289-.219.589-.464.882-.691v8.143H36.6a.827.827,0,0,0-.827.827v2.65a2.443,2.443,0,0,0,0,4.624v1.994a2.443,2.443,0,0,0,0,4.624v2.653a.827.827,0,0,0,.827.827h4.136v2.481a.827.827,0,0,0,.827.827H45.7v1.654h1.654v-1.654h6.618v1.654h1.654v-1.654h4.136a.828.828,0,0,0,.827-.827v-2.481h4.136a.827.827,0,0,0,.827-.827v-2.653a2.443,2.443,0,0,0,0-4.624v-1.994a2.443,2.443,0,0,0,0-4.624v-2.65a.827.827,0,0,0-.827-.827H62.687V1050.4c.293.228.593.472.882.691a40.348,40.348,0,0,0,7.752,4.853,10.679,10.679,0,0,0,3.041.9,2.955,2.955,0,0,0,2.065-.385c.895-.667.933-1.979.375-3.865a33.6,33.6,0,0,0-3.658-7.448l-2.1-.265a32.491,32.491,0,0,1,3.516,7.144c.516,1.743.341,2.806-.181,3.2a1.263,1.263,0,0,1-.953.2,6.065,6.065,0,0,1-1.722-.533,37.229,37.229,0,0,1-6.747-4.272c-.376-.285-.769-.6-1.154-.9a24.9,24.9,0,0,0,9.758-11.461,26.361,26.361,0,0,0,6.249-2.352,6.929,6.929,0,0,0,3.412-3.49,3.613,3.613,0,0,0,.068-2.1,5.021,5.021,0,0,0-1.1-2.02,14.565,14.565,0,0,0-5.209-3.428l-.627,1.512a13.256,13.256,0,0,1,4.6,2.982,2.324,2.324,0,0,1,.7,2.465,5.617,5.617,0,0,1-2.7,2.627,22.674,22.674,0,0,1-4.7,1.884,24.553,24.553,0,0,0-2.885-21.213c.6-.894,1.17-1.771,1.7-2.624a34.294,34.294,0,0,0,3.7-7.487c.575-1.9.551-3.224-.32-3.91a2.83,2.83,0,0,0-2.023-.42,10.426,10.426,0,0,0-3.034.872,39.589,39.589,0,0,0-7.723,4.808l1.383.478a36.554,36.554,0,0,1,6.7-4.223,5.844,5.844,0,0,1,1.693-.511,1.235,1.235,0,0,1,.944.22c.515.405.671,1.488.139,3.247a33.153,33.153,0,0,1-3.561,7.183c-.193.313-.416.643-.62.963a24.735,24.735,0,0,0-39.4,0c-.2-.32-.427-.649-.62-.963a33.153,33.153,0,0,1-3.561-7.183c-.532-1.759-.373-2.842.142-3.247a1.234,1.234,0,0,1,.944-.22,5.848,5.848,0,0,1,1.693.511,36.555,36.555,0,0,1,6.7,4.223l1.386-.478a39.591,39.591,0,0,0-7.726-4.808,10.409,10.409,0,0,0-3.031-.872,4.618,4.618,0,0,0-.633-.019Zm24.4,4.937a23.1,23.1,0,0,1,18.748,9.59,163.313,163.313,0,0,1-16.528,20.2h-4.44a173.667,173.667,0,0,1-14.5-17.3,19.813,19.813,0,0,1,16.722-9.167v-1.654a21.484,21.484,0,0,0-17.752,9.377c-.337-.485-.678-.974-1-1.448A23.1,23.1,0,0,1,50.663,1005.6Zm-19.694,11.009c.336.483.7.976,1.053,1.467a21.374,21.374,0,0,0-2.866,10.692h1.654a19.772,19.772,0,0,1,2.288-9.248,176.691,176.691,0,0,0,13.4,15.865h-4.11v1.655H45.7v1.234a79.093,79.093,0,0,1-14.5-2.459c-1.042-.295-1.977-.611-2.863-.934a23.011,23.011,0,0,1,2.637-18.273Zm39.389,0a23.012,23.012,0,0,1,2,20.24c-.018,0-.034.017-.052.017a77.179,77.179,0,0,1-16.676,1.764v-1.586h3.309v-1.654h-4.11a168.889,168.889,0,0,0,15.532-18.777Zm-41.382,20.247c.585.188,1.181.373,1.816.553a81.134,81.134,0,0,0,14.909,2.546v2.653c-2.347,2.215-4.653,4.26-6.853,6.055A23.148,23.148,0,0,1,28.975,1036.854Zm18.379.184h.714c.475.49.941.985,1.419,1.467-.712-.035-1.424-.061-2.133-.109v-1.357Zm2.656,0h1.305c-.219.226-.433.464-.653.688C50.444,1037.5,50.23,1037.264,50.011,1037.038Zm3.247,0h.714v1.59c-.753,0-1.5.017-2.252-.017.517-.521,1.024-1.049,1.538-1.58Zm18.292,1.69a23.135,23.135,0,0,1-9.07,9.933c-2.2-1.8-4.506-3.84-6.853-6.055v-2.3A81.327,81.327,0,0,0,71.55,1038.728Zm-24.2,1.344c.294.02.59.028.885.045q-.443.436-.885.866v-.911Zm2.737.139c.4.016.8.048,1.208.061.892.876,1.782,1.778,2.672,2.614v15.652H47.355v-15.652c.911-.856,1.824-1.778,2.737-2.676Zm3.186.094c.233,0,.462,0,.695,0v.682C53.74,1040.762,53.509,1040.533,53.277,1040.306Zm-7.577,4.071v14.162H40.294v-9.067l-.281-.149c1.844-1.489,3.759-3.188,5.687-4.947Zm9.926,0c1.928,1.759,3.843,3.458,5.687,4.947l-.281.149v9.067H55.626v-14.162Zm-18.2,15.823H63.9v1.655H37.428Zm-.737,3.309H64.635a.832.832,0,1,1,0,1.654H36.691a.832.832,0,1,1,0-1.654Zm.737,3.3H63.9v1.654H37.428Zm-.737,3.309H64.635a.832.832,0,1,1,0,1.655H36.691a.832.832,0,1,1,0-1.655Zm.737,3.309H63.9v1.654H59.846q-.042,0-.084,0h-18.2q-.042,0-.084,0H37.428v-1.654Zm4.963,3.309H58.935v1.654H42.391Z" transform="translate(-6.008 -992.36)" fill="#e91c24"/>
    </g>
  </g>
</svg>
