<svg width="16" height="13" viewBox="0 0 16 13" fill="none" xmlns="http://www.w3.org/2000/svg">
<path fillRule="evenodd" clipRule="evenodd" d="M11.7239 0.863429C11.3518 0.314691 10.8188 0 10.2618 0C9.70466 0 9.17175 0.31472 8.79956 0.863429C8.45768 1.36752 8.26937 2.0295 8.26937 2.72745C8.26937 3.4254 8.45765 4.08738 8.79956 4.59147C9.17175 5.14018 9.70469 5.4549 10.2618 5.4549C10.8188 5.4549 11.3518 5.14018 11.7239 4.59147C12.0658 4.08738 12.2541 3.4254 12.2541 2.72745C12.2541 2.0295 12.0659 1.36749 11.7239 0.863429ZM11.6191 7.53355C10.6019 6.30538 9.31614 5.62899 7.99861 5.62899C6.68109 5.62899 5.39531 6.30538 4.37815 7.53355C3.46384 8.63749 2.918 10.0288 2.918 11.2552C2.918 11.851 3.10013 12.3048 3.45932 12.6041C3.81385 12.8995 4.28191 12.9994 4.8041 12.9994C5.35975 12.9994 5.97673 12.8862 6.58293 12.775C7.11265 12.6779 7.61299 12.5861 7.99864 12.5861C8.33149 12.5861 8.8008 12.6732 9.29757 12.7654C10.4586 12.981 11.7745 13.2252 12.5347 12.5932C12.896 12.2927 13.0793 11.8426 13.0793 11.2552C13.0793 10.0288 12.5334 8.63749 11.6191 7.53355ZM5.73718 0C6.29427 0 6.82718 0.314691 7.19936 0.863429C7.54125 1.36749 7.72953 2.0295 7.72956 2.72745C7.72956 3.42543 7.54125 4.08738 7.19936 4.59147C6.82718 5.14021 6.29427 5.45493 5.73718 5.45493C5.18008 5.45493 4.64717 5.14021 4.27499 4.59147C3.93307 4.08738 3.74479 3.4254 3.74479 2.72745C3.74479 2.0295 3.9331 1.36752 4.27499 0.863429C4.64714 0.31472 5.18008 0 5.73718 0ZM15.4718 5.14425C15.3218 4.63387 15.0002 4.26301 14.5663 4.10004C14.2171 3.9689 13.823 3.99114 13.4565 4.16267C12.9514 4.39902 12.5386 4.88708 12.3239 5.50167C12.1485 6.0039 12.1266 6.53474 12.2623 6.99648C12.4124 7.50686 12.734 7.87772 13.1679 8.04069C13.318 8.09709 13.4764 8.12511 13.6374 8.12511C13.8508 8.12511 14.0688 8.07583 14.2777 7.97806C14.7828 7.74171 15.1956 7.25365 15.4103 6.63909V6.63906C15.5857 6.13686 15.6076 5.60599 15.4718 5.14425ZM2.54379 4.16266C3.04885 4.39901 3.4617 4.88704 3.6764 5.50162C3.85181 6.00388 3.87369 6.53476 3.738 6.99647C3.58797 7.50682 3.26639 7.87768 2.83244 8.04068C2.68231 8.09705 2.52386 8.1251 2.36287 8.1251C2.14946 8.1251 1.93156 8.07582 1.72262 7.97805C1.21755 7.7417 0.804737 7.25367 0.590002 6.63908V6.63905C0.41457 6.13685 0.392689 5.60598 0.528434 5.14423C0.678471 4.63388 1.00007 4.26303 1.43397 4.10003C1.78309 3.96892 2.17725 3.99113 2.54379 4.16266Z" fill="#00DA93"/>
</svg>
