<svg width="14" height="12" viewBox="0 0 14 12" fill="none" xmlns="http://www.w3.org/2000/svg">
<path fillRule="evenodd" clipRule="evenodd" d="M10.1645 0.756541C9.84849 0.290629 9.39599 0.0234375 8.92301 0.0234375C8.45 0.0234375 7.99753 0.290654 7.68152 0.756541C7.39124 1.18454 7.23135 1.74661 7.23135 2.33921C7.23135 2.93181 7.39121 3.49387 7.68152 3.92187C7.99753 4.38776 8.45003 4.65497 8.92301 4.65497C9.39601 4.65497 9.84849 4.38776 10.1645 3.92187C10.4548 3.49387 10.6147 2.93181 10.6147 2.33921C10.6147 1.74661 10.4548 1.18452 10.1645 0.756541ZM10.0778 6.4224C9.21413 5.3796 8.12245 4.80531 7.00379 4.80531C5.88513 4.80531 4.79342 5.3796 3.92979 6.4224C3.15349 7.35971 2.69004 8.541 2.69004 9.58233C2.69004 10.0882 2.84468 10.4735 3.14966 10.7276C3.45067 10.9784 3.84808 11.0633 4.29146 11.0632C4.76323 11.0632 5.28709 10.9672 5.80179 10.8727C6.25155 10.7902 6.67637 10.7123 7.00381 10.7123C7.28642 10.7123 7.68489 10.7863 8.10668 10.8646C9.09243 11.0476 10.2097 11.255 10.8552 10.7183C11.162 10.4632 11.3176 10.081 11.3176 9.58233C11.3176 8.541 10.8541 7.35971 10.0778 6.4224ZM5.07603 0.0234375C5.54903 0.0234375 6.00151 0.290629 6.31751 0.75654C6.6078 1.18452 6.76765 1.74661 6.76768 2.33921C6.76768 2.93183 6.6078 3.49387 6.31751 3.92187C6.00151 4.38778 5.54903 4.655 5.07603 4.655C4.60302 4.655 4.15055 4.38778 3.83454 3.92187C3.54423 3.49387 3.38438 2.93181 3.38438 2.33921C3.38438 1.74661 3.54426 1.18454 3.83454 0.75654C4.15052 0.290654 4.60302 0.0234375 5.07603 0.0234375ZM13.3427 4.39238C13.2153 3.95903 12.9422 3.64415 12.5738 3.50578C12.2774 3.39444 11.9427 3.41332 11.6315 3.55896C11.2027 3.75964 10.8522 4.17402 10.6699 4.69585C10.5209 5.12227 10.5024 5.57299 10.6176 5.96504C10.745 6.39838 11.0181 6.71326 11.3865 6.85163C11.514 6.89952 11.6485 6.92331 11.7852 6.92331C11.9664 6.92331 12.1514 6.88147 12.3288 6.79845C12.7576 6.59778 13.1082 6.18339 13.2904 5.66159V5.66157C13.4394 5.23517 13.4579 4.78443 13.3427 4.39238ZM2.36889 3.55861C2.79772 3.75928 3.14825 4.17365 3.33055 4.69547C3.47947 5.12192 3.49805 5.57266 3.38285 5.96468C3.25546 6.398 2.98242 6.71288 2.61397 6.85128C2.4865 6.89914 2.35196 6.92296 2.21527 6.92296C2.03408 6.92296 1.84907 6.88111 1.67166 6.7981C1.24283 6.59742 0.892327 6.18306 0.710004 5.66124V5.66121C0.561051 5.23481 0.542473 4.78407 0.657729 4.39202C0.785119 3.9587 1.05818 3.64383 1.42658 3.50543C1.72301 3.39411 2.05767 3.41296 2.36889 3.55861Z" fill="#F9FFFE"/>
</svg>
